<?xml version="1.0" standalone="no"?>
<!DOCTYPE svg PUBLIC "-//W3C//DTD SVG 20010904//EN"
 "http://www.w3.org/TR/2001/REC-SVG-20010904/DTD/svg10.dtd">
<svg version="1.0" xmlns="http://www.w3.org/2000/svg"
 width="422.000000pt" height="422.000000pt" viewBox="0 0 422.000000 422.000000"
 preserveAspectRatio="xMidYMid meet">
<metadata>
Created by potrace 1.11, written by Peter Selinger 2001-2013
</metadata>
<g transform="translate(0.000000,422.000000) scale(0.100000,-0.100000)"
fill="#000000" stroke="none">
<path d="M2400 4217 c0 -1 -9 -61 -19 -134 -19 -146 -19 -195 4 -230 54 -82
204 -86 259 -7 14 20 22 50 31 119 3 22 8 67 13 100 14 106 11 120 -24 123
-34 3 -34 4 -50 -128 -4 -30 -8 -62 -10 -70 -1 -8 -3 -29 -3 -47 -1 -39 -38
-85 -72 -87 -36 -3 -78 21 -85 49 -5 22 -2 84 13 200 13 102 11 107 -24 111
-18 2 -33 3 -33 1z"/>
<path d="M1742 4150 c-26 -11 -28 1 27 -180 21 -69 36 -133 33 -143 -6 -25
-44 -41 -75 -33 -18 4 -29 17 -37 41 -13 40 -12 40 -50 20 -26 -13 -28 -18
-20 -40 33 -87 109 -119 187 -80 64 32 81 95 53 190 -10 33 -30 99 -45 148
-26 88 -32 93 -73 77z"/>
<path d="M3184 3803 c-60 -92 -110 -169 -112 -173 -1 -3 12 -14 29 -24 26 -15
33 -16 40 -5 5 8 25 40 45 72 22 36 40 55 47 50 98 -58 147 -95 141 -106 -4
-6 -25 -39 -47 -71 l-40 -59 24 -18 c13 -10 29 -19 34 -18 8 0 171 243 218
324 5 9 -3 21 -22 34 l-28 21 -47 -71 -47 -71 -27 18 c-15 10 -48 31 -74 48
-26 17 -48 34 -48 38 0 4 19 37 41 73 23 36 40 67 38 68 -2 2 -16 10 -30 20
l-27 16 -108 -166z"/>
<path d="M990 3775 l-23 -24 26 -28 c60 -66 119 -132 137 -156 l20 -25 -63 20
c-34 11 -94 28 -134 39 -39 10 -82 23 -95 28 -19 7 -30 3 -60 -23 l-37 -31 37
-41 c42 -47 92 -102 176 -197 58 -66 58 -66 82 -49 13 9 24 22 24 27 0 6 -43
59 -96 119 -53 59 -88 106 -78 103 11 -3 88 -24 172 -47 l153 -41 30 22 c34
24 35 20 -36 99 -104 117 -171 194 -183 211 -17 25 -24 24 -52 -6z"/>
<path d="M3827 3224 l-167 -106 23 -37 c70 -115 113 -181 117 -181 3 0 16 9
29 19 l24 18 -47 78 c-26 42 -46 78 -44 80 2 1 62 40 133 85 72 46 134 86 139
91 9 8 -18 59 -32 59 -5 0 -83 -48 -175 -106z"/>
<path d="M337 2912 l-16 -37 92 -89 c51 -49 122 -118 158 -153 l67 -63 14 36
c15 36 15 36 -24 73 l-39 36 30 75 30 75 55 3 c51 3 57 6 72 33 8 17 14 33 11
35 -2 2 -101 6 -219 9 l-216 5 -15 -38z m230 -40 c8 -2 5 -18 -9 -53 -11 -27
-23 -49 -27 -49 -3 0 -31 25 -61 56 l-55 54 70 -2 c39 -1 75 -3 82 -6z"/>
<path d="M190 2152 c-5 -2 -10 -19 -10 -38 l0 -34 202 2 203 3 1 33 c1 31 0
32 -40 33 -217 3 -348 3 -356 1z"/>
<path d="M287 1517 c-15 -6 -26 -16 -23 -22 2 -5 30 -76 61 -157 l57 -146 29
10 c34 12 35 13 9 78 -20 50 -19 70 2 70 8 0 163 58 266 100 25 11 27 25 9 56
-12 21 -13 21 -166 -39 -170 -66 -158 -67 -188 16 -10 26 -20 47 -23 46 -3 -1
-18 -6 -33 -12z"/>
<path d="M3615 1031 c-22 -10 -50 -28 -62 -40 -54 -52 -75 -141 -48 -204 l16
-38 29 18 c18 10 28 23 25 33 -16 55 -15 70 4 107 20 41 69 73 110 73 34 0 84
-25 112 -56 55 -60 54 -133 0 -188 -28 -27 -38 -31 -86 -30 -51 0 -55 -2 -64
-28 -12 -34 7 -48 69 -48 101 0 189 91 191 197 4 154 -161 267 -296 204z"/>
<path d="M912 950 c-62 -38 -67 -115 -13 -193 36 -52 39 -77 13 -100 -25 -23
-46 -21 -76 6 -28 24 -39 65 -24 84 12 15 -35 48 -57 39 -14 -5 -17 -17 -17
-66 0 -43 3 -51 37 -88 65 -73 165 -74 211 -3 25 38 19 86 -21 157 -40 72 -40
100 2 110 55 14 113 -59 92 -115 -11 -27 1 -46 31 -54 37 -10 58 73 34 132
-40 96 -136 137 -212 91z"/>
<path d="M3031 579 c-12 -5 -21 -15 -18 -22 3 -6 17 -43 32 -80 15 -37 26 -69
24 -71 -14 -12 -165 -63 -170 -58 -4 4 -19 39 -34 79 -27 71 -28 71 -56 61
-16 -5 -31 -13 -33 -17 -3 -4 29 -90 70 -191 40 -101 74 -185 74 -186 0 -2 15
3 33 11 36 16 36 16 0 103 -14 34 -24 64 -22 66 11 11 161 66 168 61 5 -2 18
-30 30 -62 31 -86 33 -88 69 -69 l31 16 -71 172 c-38 95 -72 179 -75 186 -6
14 -19 14 -52 1z"/>
<path d="M1536 538 c-78 -171 -146 -323 -146 -329 0 -8 59 -33 65 -28 7 7 166
362 163 364 -10 8 -48 25 -57 25 -5 0 -17 -15 -25 -32z"/>
<path d="M2040 415 c0 -3 18 -41 39 -84 l40 -78 -35 -17 c-81 -38 -80 -177 1
-214 14 -6 68 -14 120 -18 l95 -6 2 38 c0 22 2 50 3 64 1 14 5 89 9 168 l7
142 -35 0 c-33 0 -36 -3 -37 -30 -1 -16 -3 -39 -4 -50 -1 -11 -3 -33 -4 -50
-1 -25 -5 -29 -24 -28 -18 2 -31 19 -61 85 -39 83 -39 83 -78 83 -21 0 -38 -2
-38 -5z m194 -270 c-3 -79 -1 -75 -44 -75 -74 0 -113 39 -87 87 16 29 29 33
82 31 l50 -3 -1 -40z"/>
</g>
</svg>
