<?xml version="1.0" encoding="utf-8"?>
<!-- Generator: Adobe Illustrator 18.0.0, SVG Export Plug-In . SVG Version: 6.00 Build 0)  -->
<!DOCTYPE svg PUBLIC "-//W3C//DTD SVG 1.1//EN" "http://www.w3.org/Graphics/SVG/1.1/DTD/svg11.dtd">
<svg version="1.1" id="Layer_1" xmlns="http://www.w3.org/2000/svg" xmlns:xlink="http://www.w3.org/1999/xlink" x="0px" y="0px"
	 viewBox="0 0 500 468" enable-background="new 0 0 500 468" xml:space="preserve">
<g>
	<path fill="#282828" d="M420.7,344.8c9.9,8.8,9.2,21.4,2.3,29.3c-6.8,7.7-15.4,8.2-21.9,4.9l2.7-6.3c4.5,2.4,9.9,2.2,14.4-2.9
		c4.4-5,5.2-13.2-2.1-19.8c-7.1-6.3-15.2-4.8-19.8,0.4c-4.5,5.1-3.8,10.9-1.3,14.9l-5.7,3.3c-3.9-5.9-4.7-14.9,2.1-22.6
		C398.6,338,410.9,336.1,420.7,344.8z"/>
	<path fill="#282828" d="M320.5,394.3l6.5,16.1l17.6-7.1l-6.5-16.1l6.4-2.6l15.2,37.6l-6.4,2.6l-6.3-15.5l-17.6,7.1l6.3,15.5
		l-6.4,2.6l-15.2-37.6L320.5,394.3z"/>
	<path fill="#282828" d="M256.2,418.8l5,0.3l0.9-16l6.9,0.4l-2.2,40.5l-15.5-0.9c-7.8-0.4-12.4-6.1-12-13c0.3-5.8,4-10,9.8-11
		l-8.2-17.2l7.8,0.4L256.2,418.8z M253.6,424.7c-4.2-0.2-7.1,2.1-7.3,5.8c-0.2,3.8,2.4,6.4,6.6,6.6l7.4,0.4l0.7-12.4L253.6,424.7z"
		/>
	<path fill="#282828" d="M198.9,389.5l-16.7,36.9l-6.4-2.9l16.7-36.9L198.9,389.5z"/>
	<path fill="#282828" d="M118.6,367.7c-1.5,2.1-2.6,6.2,1.2,10c2.9,2.9,6.9,3,9.1,0.8c1.8-1.8,2.1-4.3,0.3-7l-3.3-5
		c-4-6.1-3.5-12,0.5-16c4.5-4.4,12.3-5.1,18.8,1.5c7.3,7.3,5.9,15.3,2.2,19.9l-5.8-3.2c2.7-3.3,3.3-8.2-0.8-12.3
		c-3.4-3.4-6.9-3.5-9.2-1.3c-1.9,1.9-2,4.7-0.1,7.7l3.2,4.9c3.5,5.3,3.5,11-0.8,15.3c-4.8,4.8-13.2,4.3-18.5-1
		c-6.7-6.8-5.2-13.5-2.7-17.3L118.6,367.7z"/>
	<path fill="#282828" d="M74,303.7l31.8-12.3l2.5,6.4L76.5,310l4.8,12.3l-6,2.3l-12-31l6-2.3L74,303.7z"/>
	<path fill="#282828" d="M95.5,235.8L55,235.8l0-7l40.5,0.1L95.5,235.8z"/>
	<path fill="#282828" d="M102.1,156.6l-6.5,15.9l8,7.4l-2.8,6.7l-31.5-30l3-7.3l43.5,0.8l-2.8,6.9L102.1,156.6z M90.6,167.8
		l4.7-11.4l-17.7-0.6L90.6,167.8z"/>
	<path fill="#282828" d="M160.4,99l-35.3-9.7l20.3,23l-5.1,4.5l-26.8-30.4l6.6-5.8l32.8,9.4l-19-21.5l5.1-4.5l26.8,30.4L160.4,99z"
		/>
	<path fill="#282828" d="M198.4,60l6-3.2l1.1,3.6c1.4,4.5,4.5,5.8,7.9,4.8c3.5-1.1,5-4.1,3.8-8L209.1,30l6.6-2l8.1,27
		c2.1,6.9-1,14.1-8.4,16.3c-7.6,2.3-13.9-1.2-16.2-8.8L198.4,60z"/>
	<path fill="#282828" d="M273.7,48.4l3.3-26.2l6.8,0.8l-3.2,25.8c-0.7,5.7,2,9.2,7.1,9.8c5.2,0.6,8.6-2.1,9.3-7.8l3.2-25.8l6.8,0.9
		l-3.3,26.2c-1.2,9.7-8.4,14-16.9,13C278.4,64.1,272.5,58.1,273.7,48.4z"/>
	<path fill="#282828" d="M366,95.5l9.4-14.5l-16-10.4l-9.4,14.5l-5.8-3.7l22.1-34l5.8,3.7l-9.1,14l16,10.4l9.1-14l5.8,3.8l-22.1,34
		L366,95.5z"/>
	<path fill="#282828" d="M403.2,132.4l34.2-21.8l3.7,5.8l-28.7,18.3l10,15.7l-5.5,3.5L403.2,132.4z"/>
</g>
</svg>
